<?xml version="1.0" encoding="iso-8859-1"?>
<!-- Generator: Adobe Illustrator 16.0.0, SVG Export Plug-In . SVG Version: 6.00 Build 0)  -->
<!DOCTYPE svg PUBLIC "-//W3C//DTD SVG 1.1//EN" "http://www.w3.org/Graphics/SVG/1.1/DTD/svg11.dtd">
<svg version="1.1" id="Capa_1" xmlns="http://www.w3.org/2000/svg" xmlns:xlink="http://www.w3.org/1999/xlink" x="0px" y="0px"
	 width="174.997px" height="174.996px" viewBox="0 0 174.997 174.996" style="enable-background:new 0 0 174.997 174.996;"
	 xml:space="preserve">
<g>
	<g>
		<path d="M124.779,133.735H50.22c-1.796,0-3.243,1.443-3.243,3.246s1.44,3.252,3.243,3.252h74.559c1.79,0,3.239-1.449,3.239-3.252
			S126.582,133.735,124.779,133.735z"/>
		<path d="M124.779,148.538H87.501c-1.797,0-3.249,1.449-3.249,3.252c0,1.79,1.446,3.246,3.249,3.246h37.277
			c1.803,0,3.245-1.443,3.245-3.246S126.582,148.538,124.779,148.538z"/>
		<path d="M56.504,105.415c0,10.199,61.979,10.199,61.979,0c0-8.622-9.932-20.271-23.346-23.675
			c5.607-3.766,9.475-11.213,9.475-17.908c0-9.453-7.66-17.122-17.117-17.122c-9.459,0-17.11,7.669-17.11,17.122
			c0,6.695,3.861,14.148,9.46,17.908C66.451,85.145,56.504,96.793,56.504,105.415z M86.11,86.709h-0.073l-2.832-3.261
			c1.379,0.5,2.792,0.798,4.29,0.798c1.495,0,2.911-0.292,4.29-0.779l-2.844,3.249h-0.066l7.322,17.67l-8.702,8.678l-8.692-8.678
			L86.11,86.709z"/>
		<path d="M134.528,8.424c1.017,2.47,1.698,5.058,1.698,7.709v6.866c0.22,0.907,0.366,1.845,0.366,2.816v129.015
			c0,6.674-5.426,12.099-12.094,12.099H50.5c-6.665,0-12.09-5.425-12.09-12.099V25.814c0-6.67,5.425-12.096,12.09-12.096h50.555
			c0.342-2.917,1.193-5.663,2.643-8.068H50.5c-11.116,0-20.152,9.042-20.152,20.164v129.015c0,11.125,9.036,20.167,20.152,20.167
			h73.998c11.113,0,20.149-9.042,20.149-20.167V25.814C144.654,18.364,140.549,11.916,134.528,8.424z"/>
		<path d="M118.495,46.073c8.062,0,14.614-7.234,14.614-16.118V16.124c0.012-3.136-0.841-6.041-2.247-8.516l-3.428,3.428
			c0.67,1.541,1.077,3.249,1.077,5.088v13.825c0,6.36-4.5,11.518-10.017,11.523c-5.522-0.006-10.004-5.163-10.004-11.523V16.124
			c0-6.352,4.493-11.515,10.017-11.521c1.681,0.006,3.245,0.536,4.64,1.376l3.324-3.334c-2.295-1.653-5.029-2.64-7.964-2.646
			c-8.074,0-14.626,7.233-14.626,16.124l-0.007,13.831C103.875,38.839,110.433,46.067,118.495,46.073z"/>
	</g>
</g>
<g>
</g>
<g>
</g>
<g>
</g>
<g>
</g>
<g>
</g>
<g>
</g>
<g>
</g>
<g>
</g>
<g>
</g>
<g>
</g>
<g>
</g>
<g>
</g>
<g>
</g>
<g>
</g>
<g>
</g>
</svg>
