<?xml version='1.0' encoding='utf-8'?>
<!DOCTYPE svg PUBLIC '-//W3C//DTD SVG 1.1//EN' 'http://www.w3.org/Graphics/SVG/1.1/DTD/svg11.dtd'>
<svg version="1.1" xmlns="http://www.w3.org/2000/svg" viewBox="0 0 512 512" xmlns:xlink="http://www.w3.org/1999/xlink" enable-background="new 0 0 512 512">
  <g>
    <g>
      <path d="m480.6,11h-449.2c-11.3,0-20.4,9.1-20.4,20.4v449.2c0,11.3 9.1,20.4 20.4,20.4h449.2c11.3,0 20.4-9.1 20.4-20.4v-449.2c5.68434e-14-11.3-9.1-20.4-20.4-20.4zm-305.4,40.8h161.6v41.7h-161.6v-41.7zm-123.4,0h82.5v41.7h-82.5v-41.7zm82.5,408.4h-82.5v-41.7h82.5v41.7zm202.5,0h-161.6v-41.7h161.6v41.7zm123.4,0h-82.5v-41.7h82.5v41.7zm0-82.5h-408.4v-243.4h408.3v243.4zm.1-284.2h-82.5v-41.7h82.5v41.7z"/>
      <path d="m213.4,348.3l108.6-75.6c5.5-3.8 8.8-10.1 8.8-16.8s-3.3-12.9-8.8-16.8l-108.6-75.6c-8.7-7.3-31-4.7-32.1,16.8v151.2c1.6,20.6 21.4,24.3 32.1,16.8zm8.7-128.8l52.4,36.5-52.4,36.5v-73z"/>
    </g>
  </g>
</svg>
